<svg xmlns="http://www.w3.org/2000/svg" viewBox="0 0 1200 675" width="1200" height="675" role="img" aria-label="AI Solution Architect cover">
  <defs>
    <linearGradient id="bg" x1="0" y1="0" x2="1" y2="1">
      <stop offset="0" stop-color="#ffffff"/>
      <stop offset="1" stop-color="#f1f1f5"/>
    </linearGradient>
    <linearGradient id="accent" x1="0" y1="0" x2="1" y2="1">
      <stop offset="0" stop-color="#6366F1"/>
      <stop offset="1" stop-color="#8B5CF6"/>
    </linearGradient>
    <radialGradient id="glow" cx="0.5" cy="0.5" r="0.5">
      <stop offset="0" stop-color="rgba(99,102,241,0.16)"/>
      <stop offset="1" stop-color="rgba(99,102,241,0)"/>
    </radialGradient>
  </defs>

  <rect x="0" y="0" width="1200" height="675" rx="28" fill="url(#bg)"/>
  <circle cx="1140" cy="40" r="380" fill="url(#glow)"/>
  <rect x="0.5" y="0.5" width="1199" height="674" rx="27.5" fill="none" stroke="rgba(0,0,0,0.07)" stroke-width="1"/>

  <!-- ===== motif: agent pipeline -> output plan ===== -->
  <!-- connectors between agent nodes -->
  <g stroke="#c7c7cf" stroke-width="3" fill="none">
    <line x1="690" y1="180" x2="690" y2="500"/>
    <line x1="690" y1="180" x2="820" y2="180"/>
    <line x1="690" y1="260" x2="820" y2="260"/>
    <line x1="690" y1="340" x2="820" y2="340"/>
    <line x1="690" y1="420" x2="820" y2="420"/>
    <line x1="690" y1="500" x2="820" y2="500"/>
  </g>
  <!-- input idea node (violet) -->
  <circle cx="690" cy="120" r="22" fill="none" stroke="#8B5CF6" stroke-width="4"/>
  <!-- specialized agent nodes -->
  <g fill="#ffffff" stroke="#a8a8b2" stroke-width="3">
    <rect x="820" y="156" width="190" height="48" rx="10"/>
    <rect x="820" y="236" width="190" height="48" rx="10"/>
    <rect x="820" y="316" width="190" height="48" rx="10" stroke="#6366F1"/>
    <rect x="820" y="396" width="190" height="48" rx="10"/>
    <rect x="820" y="476" width="190" height="48" rx="10"/>
  </g>
  <!-- node labels (dashes) -->
  <g stroke="#c7c7cf" stroke-width="3" stroke-linecap="round">
    <line x1="840" y1="180" x2="990" y2="180"/>
    <line x1="840" y1="260" x2="990" y2="260"/>
    <line x1="840" y1="340" x2="990" y2="340" stroke="#6366F1" stroke-opacity="0.6"/>
    <line x1="840" y1="420" x2="990" y2="420"/>
    <line x1="840" y1="500" x2="980" y2="500"/>
  </g>
  <!-- SSE stream dots from last node -->
  <g fill="#6366F1">
    <circle cx="1050" cy="340" r="6"/>
    <circle cx="1085" cy="340" r="5" opacity="0.6"/>
    <circle cx="1115" cy="340" r="4" opacity="0.35"/>
  </g>

  <!-- ===== tag chip ===== -->
  <g transform="translate(64,56)">
    <rect x="0" y="0" width="74" height="40" rx="12" fill="none" stroke="#6366F1" stroke-width="1.5"/>
    <text x="37" y="27" text-anchor="middle" font-family="'JetBrains Mono',monospace" font-size="18" letter-spacing="2" fill="#6366F1">AI</text>
  </g>

  <!-- ===== title ===== -->
  <text x="64" y="560" font-family="'Space Grotesk','Inter',sans-serif" font-size="52" font-weight="600" fill="#18181b">AI Solution Architect</text>
  <text x="64" y="600" font-family="'JetBrains Mono',monospace" font-size="20" fill="#6b6b72">idea to implementation plan, streamed</text>
</svg>
