<svg xmlns="http://www.w3.org/2000/svg" viewBox="0 0 1200 675" width="1200" height="675" role="img" aria-label="Maison Multiplayer Casino cover">
  <defs>
    <linearGradient id="bg" x1="0" y1="0" x2="1" y2="1">
      <stop offset="0" stop-color="#ffffff"/>
      <stop offset="1" stop-color="#f1f1f5"/>
    </linearGradient>
    <linearGradient id="accent" x1="0" y1="0" x2="1" y2="1">
      <stop offset="0" stop-color="#6366F1"/>
      <stop offset="1" stop-color="#8B5CF6"/>
    </linearGradient>
    <radialGradient id="glow" cx="0.5" cy="0.5" r="0.5">
      <stop offset="0" stop-color="rgba(99,102,241,0.16)"/>
      <stop offset="1" stop-color="rgba(99,102,241,0)"/>
    </radialGradient>
  </defs>

  <rect x="0" y="0" width="1200" height="675" rx="28" fill="url(#bg)"/>
  <circle cx="1140" cy="40" r="380" fill="url(#glow)"/>
  <rect x="0.5" y="0.5" width="1199" height="674" rx="27.5" fill="none" stroke="rgba(0,0,0,0.07)" stroke-width="1"/>

  <!-- ===== motif: roulette wheel + playing cards + chips ===== -->
  <!-- roulette wheel -->
  <circle cx="860" cy="300" r="130" fill="#ffffff" stroke="#a8a8b2" stroke-width="3"/>
  <circle cx="860" cy="300" r="86" fill="none" stroke="#c7c7cf" stroke-width="3"/>
  <circle cx="860" cy="300" r="22" fill="none" stroke="#6366F1" stroke-width="4"/>
  <!-- wheel spokes -->
  <g stroke="#c7c7cf" stroke-width="2.5">
    <line x1="860" y1="170" x2="860" y2="430"/>
    <line x1="730" y1="300" x2="990" y2="300"/>
    <line x1="768" y1="208" x2="952" y2="392"/>
    <line x1="952" y1="208" x2="768" y2="392"/>
  </g>
  <!-- ball (violet) -->
  <circle cx="922" cy="238" r="9" fill="#8B5CF6"/>

  <!-- playing cards (fanned) -->
  <g>
    <rect x="640" y="180" width="96" height="134" rx="12" fill="#ffffff" stroke="#a8a8b2" stroke-width="3" transform="rotate(-14 688 247)"/>
    <rect x="676" y="170" width="96" height="134" rx="12" fill="#ffffff" stroke="#6366F1" stroke-width="3" transform="rotate(-2 724 237)"/>
    <text x="712" y="220" font-family="'Space Grotesk',sans-serif" font-size="34" font-weight="700" fill="#6366F1" transform="rotate(-2 724 237)">A</text>
  </g>

  <!-- poker chips stack -->
  <g>
    <ellipse cx="780" cy="470" rx="58" ry="20" fill="#ffffff" stroke="#a8a8b2" stroke-width="3"/>
    <ellipse cx="780" cy="452" rx="58" ry="20" fill="#ffffff" stroke="#a8a8b2" stroke-width="3"/>
    <ellipse cx="780" cy="434" rx="58" ry="20" fill="#ffffff" stroke="#8B5CF6" stroke-width="3"/>
    <circle cx="780" cy="434" r="9" fill="#6366F1"/>
  </g>

  <!-- ===== tag chip ===== -->
  <g transform="translate(64,56)">
    <rect x="0" y="0" width="148" height="40" rx="12" fill="none" stroke="#6366F1" stroke-width="1.5"/>
    <text x="74" y="27" text-anchor="middle" font-family="'JetBrains Mono',monospace" font-size="16" letter-spacing="2" fill="#6366F1">FULL-STACK</text>
  </g>

  <!-- ===== title ===== -->
  <text x="64" y="560" font-family="'Space Grotesk','Inter',sans-serif" font-size="52" font-weight="600" fill="#18181b">Maison - Multiplayer Casino</text>
  <text x="64" y="600" font-family="'JetBrains Mono',monospace" font-size="20" fill="#6b6b72">five real-time games with friends</text>
</svg>
