<svg xmlns="http://www.w3.org/2000/svg" viewBox="0 0 1200 675" width="1200" height="675" role="img" aria-label="Damped Pendulum Lab cover">
  <defs>
    <linearGradient id="bg" x1="0" y1="0" x2="1" y2="1">
      <stop offset="0" stop-color="#ffffff"/>
      <stop offset="1" stop-color="#f1f1f5"/>
    </linearGradient>
    <linearGradient id="accent" x1="0" y1="0" x2="1" y2="1">
      <stop offset="0" stop-color="#6366F1"/>
      <stop offset="1" stop-color="#8B5CF6"/>
    </linearGradient>
    <radialGradient id="glow" cx="0.5" cy="0.5" r="0.5">
      <stop offset="0" stop-color="rgba(99,102,241,0.16)"/>
      <stop offset="1" stop-color="rgba(99,102,241,0)"/>
    </radialGradient>
  </defs>

  <rect x="0" y="0" width="1200" height="675" rx="28" fill="url(#bg)"/>
  <circle cx="1140" cy="40" r="380" fill="url(#glow)"/>
  <rect x="0.5" y="0.5" width="1199" height="674" rx="27.5" fill="none" stroke="rgba(0,0,0,0.07)" stroke-width="1"/>

  <!-- ===== motif: cart on track + pendulum + damped wave ===== -->
  <!-- track -->
  <line x1="640" y1="200" x2="1080" y2="200" stroke="#a8a8b2" stroke-width="4" stroke-linecap="round"/>
  <!-- cart -->
  <rect x="820" y="160" width="100" height="40" rx="8" fill="#ffffff" stroke="#6366F1" stroke-width="4"/>
  <circle cx="845" cy="206" r="10" fill="none" stroke="#a8a8b2" stroke-width="3"/>
  <circle cx="895" cy="206" r="10" fill="none" stroke="#a8a8b2" stroke-width="3"/>
  <!-- pivot -->
  <circle cx="870" cy="160" r="6" fill="#a8a8b2"/>
  <!-- pendulum rod (swung) -->
  <line x1="870" y1="160" x2="980" y2="300" stroke="#8B5CF6" stroke-width="4" stroke-linecap="round"/>
  <!-- bob -->
  <circle cx="980" cy="300" r="22" fill="#6366F1"/>
  <!-- swing arc (faint) -->
  <path d="M760 300 A 178 178 0 0 1 980 300" fill="none" stroke="#c7c7cf" stroke-width="2.5" stroke-dasharray="6 8"/>

  <!-- damped oscillation wave (decaying) -->
  <path d="M640 480
           q 22 -70 44 0
           q 22 56 44 0
           q 22 -42 44 0
           q 22 32 44 0
           q 22 -24 44 0
           q 22 18 44 0
           q 22 -12 44 0
           q 22 9 44 0
           q 22 -6 44 0"
        fill="none" stroke="#6366F1" stroke-width="4" stroke-linecap="round"/>
  <!-- decay envelope -->
  <path d="M640 410 q 200 -10 440 60" fill="none" stroke="#8B5CF6" stroke-width="2" stroke-dasharray="4 8" opacity="0.6"/>

  <!-- ===== tag chip ===== -->
  <g transform="translate(64,56)">
    <rect x="0" y="0" width="96" height="40" rx="12" fill="none" stroke="#6366F1" stroke-width="1.5"/>
    <text x="48" y="27" text-anchor="middle" font-family="'JetBrains Mono',monospace" font-size="16" letter-spacing="2" fill="#6366F1">TOOLS</text>
  </g>

</svg>
