<svg xmlns="http://www.w3.org/2000/svg" viewBox="0 0 1200 675" width="1200" height="675" role="img" aria-label="Receipt Splitter cover">
  <defs>
    <linearGradient id="bg" x1="0" y1="0" x2="1" y2="1">
      <stop offset="0" stop-color="#ffffff"/>
      <stop offset="1" stop-color="#f1f1f5"/>
    </linearGradient>
    <linearGradient id="accent" x1="0" y1="0" x2="1" y2="1">
      <stop offset="0" stop-color="#6366F1"/>
      <stop offset="1" stop-color="#8B5CF6"/>
    </linearGradient>
    <radialGradient id="glow" cx="0.5" cy="0.5" r="0.5">
      <stop offset="0" stop-color="rgba(99,102,241,0.16)"/>
      <stop offset="1" stop-color="rgba(99,102,241,0)"/>
    </radialGradient>
  </defs>

  <rect x="0" y="0" width="1200" height="675" rx="28" fill="url(#bg)"/>
  <circle cx="1140" cy="40" r="380" fill="url(#glow)"/>
  <rect x="0.5" y="0.5" width="1199" height="674" rx="27.5" fill="none" stroke="rgba(0,0,0,0.07)" stroke-width="1"/>

  <!-- ===== motif: receipt slip + split arrows to people ===== -->
  <!-- receipt with zig-zag bottom -->
  <path d="M700 120 h190 v360
           l-19 16 l-19 -16 l-19 16 l-19 -16 l-19 16 l-19 -16 l-19 16 l-19 -16 l-19 16 l-19 -16
           z"
        fill="#ffffff" stroke="#a8a8b2" stroke-width="3" stroke-linejoin="round"/>
  <!-- receipt header (indigo) -->
  <rect x="724" y="150" width="142" height="14" rx="4" fill="#6366F1"/>
  <!-- line items -->
  <g stroke="#c7c7cf" stroke-width="3" stroke-linecap="round">
    <line x1="724" y1="200" x2="830" y2="200"/>
    <line x1="724" y1="232" x2="845" y2="232"/>
    <line x1="724" y1="264" x2="812" y2="264"/>
    <line x1="724" y1="296" x2="845" y2="296"/>
  </g>
  <!-- item prices -->
  <g stroke="#a8a8b2" stroke-width="3" stroke-linecap="round">
    <line x1="848" y1="200" x2="866" y2="200"/>
    <line x1="848" y1="232" x2="866" y2="232"/>
    <line x1="848" y1="264" x2="866" y2="264"/>
    <line x1="848" y1="296" x2="866" y2="296"/>
  </g>
  <!-- total (violet) -->
  <line x1="724" y1="336" x2="866" y2="336" stroke="#8B5CF6" stroke-width="4" stroke-linecap="round"/>

  <!-- split arrows to three people -->
  <g stroke="#6366F1" stroke-width="3" fill="none" stroke-linecap="round">
    <path d="M890 250 q 70 -90 140 -90"/>
    <path d="M890 290 h 140"/>
    <path d="M890 330 q 70 90 140 90"/>
  </g>
  <!-- person circles -->
  <g fill="#ffffff" stroke="#8B5CF6" stroke-width="4">
    <circle cx="1060" cy="160" r="26"/>
    <circle cx="1060" cy="290" r="26"/>
    <circle cx="1060" cy="420" r="26"/>
  </g>
  <g fill="#6366F1">
    <circle cx="1060" cy="152" r="9"/>
    <circle cx="1060" cy="282" r="9"/>
    <circle cx="1060" cy="412" r="9"/>
  </g>

  <!-- ===== tag chip ===== -->
  <g transform="translate(64,56)">
    <rect x="0" y="0" width="96" height="40" rx="12" fill="none" stroke="#6366F1" stroke-width="1.5"/>
    <text x="48" y="27" text-anchor="middle" font-family="'JetBrains Mono',monospace" font-size="16" letter-spacing="2" fill="#6366F1">TOOLS</text>
  </g>

  <!-- ===== title ===== -->
  <text x="64" y="560" font-family="'Space Grotesk','Inter',sans-serif" font-size="52" font-weight="600" fill="#18181b">Receipt Splitter</text>
  <text x="64" y="600" font-family="'JetBrains Mono',monospace" font-size="20" fill="#6b6b72">split a bill fairly, AI or manual</text>
</svg>
