<svg xmlns="http://www.w3.org/2000/svg" viewBox="0 0 1200 600" width="1200" height="600" font-family="'Segoe UI',Helvetica,Arial,sans-serif">
<defs><radialGradient id="bg" cx="0.5" cy="0.42" r="0.75"><stop offset="0" stop-color="#5b54e0"/><stop offset="1" stop-color="#2f2a8f"/></radialGradient></defs>
<rect width="1200" height="600" fill="url(#bg)"/>
<ellipse cx="600" cy="220" rx="640" ry="380" fill="#ffffff" opacity="0.06"/>
<path d="M250 420 L470 300 L690 400 L900 240" fill="none" stroke="#c7d2fe" stroke-width="6" opacity="0.7"/><ellipse cx="250" cy="478" rx="70" ry="11.2" fill="#000" opacity="0.22"/><rect x="180" y="374" width="140" height="92" rx="16" fill="#a5b4fc" /><rect x="204" y="394" width="92" height="12" rx="6" fill="#6366f1" /><rect x="204" y="418" width="64" height="10" rx="5" fill="#a5b4fc" /><rect x="204" y="436" width="80" height="10" rx="5" fill="#c7d2fe" /><ellipse cx="470" cy="358" rx="70" ry="11.2" fill="#000" opacity="0.22"/><rect x="400" y="254" width="140" height="92" rx="16" fill="#ffffff" /><rect x="424" y="274" width="92" height="12" rx="6" fill="#6366f1" /><rect x="424" y="298" width="64" height="10" rx="5" fill="#a5b4fc" /><rect x="424" y="316" width="80" height="10" rx="5" fill="#c7d2fe" /><ellipse cx="690" cy="458" rx="70" ry="11.2" fill="#000" opacity="0.22"/><rect x="620" y="354" width="140" height="92" rx="16" fill="#a5b4fc" /><rect x="644" y="374" width="92" height="12" rx="6" fill="#6366f1" /><rect x="644" y="398" width="64" height="10" rx="5" fill="#a5b4fc" /><rect x="644" y="416" width="80" height="10" rx="5" fill="#c7d2fe" /><ellipse cx="900" cy="298" rx="70" ry="11.2" fill="#000" opacity="0.22"/><rect x="830" y="194" width="140" height="92" rx="16" fill="#ffffff" /><rect x="854" y="214" width="92" height="12" rx="6" fill="#6366f1" /><rect x="854" y="238" width="64" height="10" rx="5" fill="#a5b4fc" /><rect x="854" y="256" width="80" height="10" rx="5" fill="#c7d2fe" /><ellipse cx="1010" cy="200" rx="70" ry="11.2" fill="#000" opacity="0.22"/><circle cx="1010" cy="150" r="62" fill="#fbbf24" /><rect x="982" y="200" width="56" height="34" rx="8" fill="#f59e0b" /><rect x="992" y="234" width="36" height="14" rx="6" fill="#d97706" /><path d="M1010 120 v44 M990 138 h40" stroke="#fff7e0" stroke-width="6" stroke-linecap="round"/>
</svg>