<svg xmlns="http://www.w3.org/2000/svg" viewBox="0 0 1200 600" width="1200" height="600" font-family="'Segoe UI',Helvetica,Arial,sans-serif">
<defs><radialGradient id="cg" cx="0.5" cy="0.42" r="0.75"><stop offset="0" stop-color="#0d6b46"/><stop offset="1" stop-color="#06351f"/></radialGradient></defs>
<rect width="1200" height="600" fill="url(#cg)"/>
<ellipse cx="600" cy="220" rx="640" ry="380" fill="#ffffff" opacity="0.06"/>
<ellipse cx="600" cy="454.56" rx="159.6" ry="25.5" fill="#000" opacity="0.22"/><circle cx="600" cy="300" r="168" fill="#e6c75b" /><circle cx="600" cy="300" r="151.20000000000002" fill="#1c140b" /><circle cx="600" cy="175.68" r="16.8" fill="#1e8449" stroke="#e6c75b" stroke-width="2"/><circle cx="642.5199442182471" cy="183.1774133838959" r="16.8" fill="#c8362f" stroke="#e6c75b" stroke-width="2"/><circle cx="679.9113556362306" cy="204.76535483144866" r="16.8" fill="#16161c" stroke="#e6c75b" stroke-width="2"/><circle cx="707.6642781984814" cy="237.84" r="16.8" fill="#c8362f" stroke="#e6c75b" stroke-width="2"/><circle cx="722.4312998544777" cy="278.4120585524472" r="16.8" fill="#16161c" stroke="#e6c75b" stroke-width="2"/><circle cx="722.4312998544777" cy="321.5879414475528" r="16.8" fill="#c8362f" stroke="#e6c75b" stroke-width="2"/><circle cx="707.6642781984814" cy="362.15999999999997" r="16.8" fill="#16161c" stroke="#e6c75b" stroke-width="2"/><circle cx="679.9113556362306" cy="395.2346451685513" r="16.8" fill="#c8362f" stroke="#e6c75b" stroke-width="2"/><circle cx="642.5199442182471" cy="416.8225866161041" r="16.8" fill="#16161c" stroke="#e6c75b" stroke-width="2"/><circle cx="600" cy="424.32" r="16.8" fill="#c8362f" stroke="#e6c75b" stroke-width="2"/><circle cx="557.4800557817529" cy="416.8225866161041" r="16.8" fill="#16161c" stroke="#e6c75b" stroke-width="2"/><circle cx="520.0886443637694" cy="395.2346451685513" r="16.8" fill="#c8362f" stroke="#e6c75b" stroke-width="2"/><circle cx="492.3357218015186" cy="362.16" r="16.8" fill="#16161c" stroke="#e6c75b" stroke-width="2"/><circle cx="477.5687001455223" cy="321.5879414475528" r="16.8" fill="#c8362f" stroke="#e6c75b" stroke-width="2"/><circle cx="477.56870014552226" cy="278.41205855244726" r="16.8" fill="#16161c" stroke="#e6c75b" stroke-width="2"/><circle cx="492.3357218015186" cy="237.83999999999997" r="16.8" fill="#c8362f" stroke="#e6c75b" stroke-width="2"/><circle cx="520.0886443637694" cy="204.7653548314487" r="16.8" fill="#16161c" stroke="#e6c75b" stroke-width="2"/><circle cx="557.4800557817528" cy="183.1774133838959" r="16.8" fill="#c8362f" stroke="#e6c75b" stroke-width="2"/><circle cx="600" cy="300" r="70.56" fill="#e6c75b" /><circle cx="600" cy="300" r="57.120000000000005" fill="#caa83f" /><line x1="600" y1="300" x2="670.56" y2="300" stroke="#8a6f23" stroke-width="6" stroke-linecap="round"/><line x1="600" y1="300" x2="649.8934544805228" y2="349.8934544805228" stroke="#8a6f23" stroke-width="6" stroke-linecap="round"/><line x1="600" y1="300" x2="600" y2="370.56" stroke="#8a6f23" stroke-width="6" stroke-linecap="round"/><line x1="600" y1="300" x2="550.1065455194772" y2="349.8934544805228" stroke="#8a6f23" stroke-width="6" stroke-linecap="round"/><line x1="600" y1="300" x2="529.44" y2="300" stroke="#8a6f23" stroke-width="6" stroke-linecap="round"/><line x1="600" y1="300" x2="550.1065455194772" y2="250.1065455194772" stroke="#8a6f23" stroke-width="6" stroke-linecap="round"/><line x1="600" y1="300" x2="600" y2="229.44" stroke="#8a6f23" stroke-width="6" stroke-linecap="round"/><line x1="600" y1="300" x2="649.8934544805228" y2="250.1065455194772" stroke="#8a6f23" stroke-width="6" stroke-linecap="round"/><circle cx="600" cy="300" r="20.16" fill="#3a2c0d" /><circle cx="644.084479557128" cy="183.75878070934925" r="11.760000000000002" fill="#fdfdfd" /><ellipse cx="250" cy="470" rx="120" ry="19.2" fill="#000" opacity="0.22"/><circle cx="250" cy="430" r="64" fill="#c8362f" /><circle cx="250" cy="430" r="64" fill="none" stroke="#ffffff" stroke-width="10.24" stroke-dasharray="33.28 26.88"/><circle cx="250" cy="430" r="39.68" fill="#9c241e" /><circle cx="250" cy="430" r="29.44" fill="#c8362f" /><circle cx="250" cy="392" r="64" fill="#16161c" /><circle cx="250" cy="392" r="64" fill="none" stroke="#ffffff" stroke-width="10.24" stroke-dasharray="33.28 26.88"/><circle cx="250" cy="392" r="39.68" fill="#000" /><circle cx="250" cy="392" r="29.44" fill="#16161c" /><circle cx="250" cy="354" r="64" fill="#2e86c1" /><circle cx="250" cy="354" r="64" fill="none" stroke="#ffffff" stroke-width="10.24" stroke-dasharray="33.28 26.88"/><circle cx="250" cy="354" r="39.68" fill="#1f5f8b" /><circle cx="250" cy="354" r="29.44" fill="#2e86c1" /><ellipse cx="960" cy="470" rx="130" ry="20.8" fill="#000" opacity="0.22"/><g transform="rotate(14 960 360)"><rect x="880" y="250" width="150" height="210" rx="16" fill="#f7f5ef" stroke="#d9d4c5" stroke-width="2"/><text x="900" y="296" font-family="'Segoe UI',Helvetica,Arial,sans-serif" font-size="40" font-weight="800" fill="#16161c">A</text><text x="955" y="392" font-family="'Segoe UI',Helvetica,Arial,sans-serif" font-size="86" fill="#16161c">&#9824;</text></g><g transform="rotate(-12 940 350)"><rect x="900" y="230" width="150" height="210" rx="16" fill="#f7f5ef" stroke="#d9d4c5" stroke-width="2"/><text x="920" y="276" font-family="'Segoe UI',Helvetica,Arial,sans-serif" font-size="40" font-weight="800" fill="#c8362f">A</text><text x="975" y="372" font-family="'Segoe UI',Helvetica,Arial,sans-serif" font-size="86" fill="#c8362f">&#9829;</text></g>
</svg>