<svg xmlns="http://www.w3.org/2000/svg" viewBox="0 0 1200 600" width="1200" height="600" font-family="'Segoe UI',Helvetica,Arial,sans-serif">
<defs><linearGradient id="csg" x1="0" y1="0" x2="0" y2="1"><stop offset="0" stop-color="#16203a"/><stop offset="1" stop-color="#0b1120"/></linearGradient></defs>
<rect width="1200" height="600" fill="url(#csg)"/>
<ellipse cx="600" cy="220" rx="640" ry="380" fill="#ffffff" opacity="0.06"/>
<ellipse cx="470" cy="510" rx="230" ry="36.8" fill="#000" opacity="0.22"/><rect x="150" y="130" width="640" height="360" rx="18" fill="#1e293b" stroke="#334155" stroke-width="2"/><rect x="150" y="130" width="640" height="52" rx="18" fill="#0f172a" /><circle cx="186" cy="156" r="9" fill="#ef4444" /><circle cx="216" cy="156" r="9" fill="#f59e0b" /><circle cx="246" cy="156" r="9" fill="#22c55e" /><text x="210" y="290" font-family="'Segoe UI',Helvetica,Arial,sans-serif" font-size="92" font-weight="800" fill="#38bdf8">&lt;/&gt;</text><text x="470" y="290" font-family="'Segoe UI',Helvetica,Arial,sans-serif" font-size="46" font-weight="700" fill="#34d399">_</text><rect x="210" y="330" width="260" height="16" rx="8" fill="#fbbf24" opacity="0.85"/><rect x="210" y="366" width="180" height="16" rx="8" fill="#f472b6" opacity="0.85"/><rect x="210" y="402" width="300" height="16" rx="8" fill="#94a3b8" opacity="0.85"/><rect x="210" y="438" width="150" height="16" rx="8" fill="#34d399" opacity="0.85"/><ellipse cx="960" cy="250" rx="110" ry="17.6" fill="#000" opacity="0.22"/><path d="M960 150 L1080 200 L960 250 L840 200 Z" fill="#f8fafc"/><path d="M905 222 V285 q55 38 110 0 V222" fill="none" stroke="#cbd5e1" stroke-width="10"/><line x1="1080" y1="200" x2="1080" y2="270" stroke="#fbbf24" stroke-width="5"/><circle cx="1080" cy="276" r="10" fill="#fbbf24" /><rect x="880" y="360" width="200" height="120" rx="12" fill="#0f172a" stroke="#38bdf8" stroke-width="2"/><line x1="880" y1="398" x2="1080" y2="398" stroke="#38bdf8" stroke-width="2"/><rect x="900" y="414" width="120" height="10" rx="5" fill="#475569" /><rect x="900" y="436" width="90" height="10" rx="5" fill="#475569" />
</svg>