<svg xmlns="http://www.w3.org/2000/svg" viewBox="0 0 1200 600" width="1200" height="600" font-family="'Segoe UI',Helvetica,Arial,sans-serif">
<defs><linearGradient id="pg" x1="0" y1="0" x2="0" y2="1"><stop offset="0" stop-color="#0e2547"/><stop offset="1" stop-color="#081224"/></linearGradient></defs>
<rect width="1200" height="600" fill="url(#pg)"/>
<ellipse cx="600" cy="220" rx="640" ry="380" fill="#ffffff" opacity="0.06"/>
<path d="M120 300 L120 300.0 L128 319.6 L136 338.3 L144 355.8 L152 371.7 L160 385.9 L168 398.1 L176 408.2 L184 416.1 L192 421.7 L200 425.0 L208 426.0 L216 424.7 L224 421.2 L232 415.7 L240 408.3 L248 399.2 L256 388.6 L264 376.8 L272 364.0 L280 350.4 L288 336.4 L296 322.1 L304 307.9 L312 293.9 L320 280.5 L328 267.9 L336 256.2 L344 245.6 L352 236.3 L360 228.4 L368 222.1 L376 217.3 L384 214.1 L392 212.5 L400 212.5 L408 214.1 L416 217.2 L424 221.6 L432 227.3 L440 234.1 L448 241.8 L456 250.4 L464 259.5 L472 269.2 L480 279.0 L488 289.0 L496 298.8 L504 308.4 L512 317.5 L520 326.0 L528 333.8 L536 340.8 L544 346.8 L552 351.9 L560 355.8 L568 358.7 L576 360.4 L584 361.0 L592 360.5 L600 359.0 L608 356.4 L616 352.9 L624 348.6 L632 343.6 L640 337.9 L648 331.8 L656 325.3 L664 318.5 L672 311.6 L680 304.7 L688 297.9 L696 291.4 L704 285.2 L712 279.5 L720 274.3 L728 269.7 L736 265.8 L744 262.6 L752 260.2 L760 258.5 L768 257.7 L776 257.6 L784 258.3 L792 259.7 L800 261.7 L808 264.4 L816 267.6 L824 271.3 L832 275.4 L840 279.8 L848 284.5 L856 289.2 L864 294.1 L872 298.8 L880 303.5 L888 307.9 L896 312.1 L904 315.9 L912 319.4 L920 322.3 L928 324.8 L936 326.8 L944 328.3 L952 329.2 L960 329.5 L968 329.4 L976 328.7 L984 327.5 L992 325.9 L1000 323.8 L1008 321.4 L1016 318.7 L1024 315.8 L1032 312.6 L1040 309.4 L1048 306.0 L1056 302.7 L1064 299.4 L1072 296.2 L1080 293.2 L1088 290.4 L1096 287.8 L1104 285.6 L1112 283.6 L1120 282.1" fill="none" stroke="#22d3ee" stroke-width="5" opacity="0.55"/><rect x="360" y="150" width="480" height="16" rx="8" fill="#94a3b8" /><ellipse cx="600" cy="470" rx="130" ry="20.8" fill="#000" opacity="0.22"/><rect x="520" y="150" width="160" height="78" rx="12" fill="#e2e8f0" /><circle cx="556" cy="236" r="22" fill="#334155" /><circle cx="644" cy="236" r="22" fill="#334155" /><line x1="600" y1="190" x2="760" y2="430" stroke="#cbd5e1" stroke-width="8" stroke-linecap="round"/><circle cx="600" cy="190" r="12" fill="#64748b" /><circle cx="760" cy="430" r="52" fill="#22d3ee" stroke="#0e7490" stroke-width="6"/><circle cx="745" cy="415" r="16" fill="#a5f3fc" />
</svg>