<svg xmlns="http://www.w3.org/2000/svg" viewBox="0 0 1200 600" width="1200" height="600" font-family="'Segoe UI',Helvetica,Arial,sans-serif">
<defs><radialGradient id="rcg" cx="0.5" cy="0.42" r="0.75"><stop offset="0" stop-color="#f08a5d"/><stop offset="1" stop-color="#c85c33"/></radialGradient></defs>
<rect width="1200" height="600" fill="url(#rcg)"/>
<ellipse cx="600" cy="220" rx="640" ry="380" fill="#ffffff" opacity="0.06"/>
<ellipse cx="520" cy="520" rx="180" ry="28.8" fill="#000" opacity="0.22"/><path d="M360 90 H660 V470 l-25 18 -25 -18 -25 18 -25 -18 -25 18 -25 -18 -25 18 -25 -18 -25 18 -25 -18 -25 18 -25 -18 V90 Z" fill="#fdfdfb"/><text x="510" y="150" font-family="'Segoe UI',Helvetica,Arial,sans-serif" font-size="30" font-weight="800" fill="#33312e" text-anchor="middle">RECEIPT</text><rect x="390" y="190" width="150" height="12" rx="6" fill="#cdcac3" /><rect x="560" y="190" width="70" height="12" rx="6" fill="#e76f51" /><rect x="390" y="236" width="150" height="12" rx="6" fill="#cdcac3" /><rect x="560" y="236" width="70" height="12" rx="6" fill="#e76f51" /><rect x="390" y="282" width="150" height="12" rx="6" fill="#cdcac3" /><rect x="560" y="282" width="70" height="12" rx="6" fill="#e76f51" /><rect x="390" y="328" width="150" height="12" rx="6" fill="#cdcac3" /><rect x="560" y="328" width="70" height="12" rx="6" fill="#e76f51" /><rect x="390" y="374" width="150" height="12" rx="6" fill="#cdcac3" /><rect x="560" y="374" width="70" height="12" rx="6" fill="#e76f51" /><line x1="390" y1="420" x2="630" y2="420" stroke="#33312e" stroke-width="3" stroke-dasharray="8 8"/><text x="390" y="455" font-family="'Segoe UI',Helvetica,Arial,sans-serif" font-size="26" font-weight="800" fill="#33312e">TOTAL</text><circle cx="840" cy="250" r="46" fill="#ffd166" /><circle cx="840" cy="232" r="22" fill="#fff3d6" /><circle cx="960" cy="250" r="46" fill="#06d6a0" /><circle cx="960" cy="232" r="22" fill="#d6fff2" /><text x="900" y="262" font-family="'Segoe UI',Helvetica,Arial,sans-serif" font-size="60" font-weight="800" fill="#fff" text-anchor="middle">/</text><ellipse cx="900" cy="470" rx="110" ry="17.6" fill="#000" opacity="0.22"/><circle cx="860" cy="420" r="50" fill="#ffd166" stroke="#e0a92e" stroke-width="5"/><circle cx="940" cy="420" r="50" fill="#ffd166" stroke="#e0a92e" stroke-width="5"/><text x="860" y="438" font-family="'Segoe UI',Helvetica,Arial,sans-serif" font-size="44" font-weight="800" fill="#b9851f" text-anchor="middle">$</text><text x="940" y="438" font-family="'Segoe UI',Helvetica,Arial,sans-serif" font-size="44" font-weight="800" fill="#b9851f" text-anchor="middle">$</text>
</svg>