<svg xmlns="http://www.w3.org/2000/svg" viewBox="0 0 1200 600" width="1200" height="600" font-family="'Segoe UI',Helvetica,Arial,sans-serif">
<defs><radialGradient id="rg" cx="0.5" cy="0.42" r="0.75"><stop offset="0" stop-color="#0e7a4f"/><stop offset="1" stop-color="#063b25"/></radialGradient></defs>
<rect width="1200" height="600" fill="url(#rg)"/>
<ellipse cx="600" cy="220" rx="640" ry="380" fill="#ffffff" opacity="0.06"/>
<ellipse cx="430" cy="493.20000000000005" rx="199.5" ry="31.9" fill="#000" opacity="0.22"/><circle cx="430" cy="300" r="210" fill="#e6c75b" /><circle cx="430" cy="300" r="189" fill="#1c140b" /><circle cx="430" cy="144.6" r="21" fill="#1e8449" stroke="#e6c75b" stroke-width="2"/><circle cx="483.14993027280894" cy="153.97176672986984" r="21" fill="#c8362f" stroke="#e6c75b" stroke-width="2"/><circle cx="529.8891945452882" cy="180.9566935393108" r="21" fill="#16161c" stroke="#e6c75b" stroke-width="2"/><circle cx="564.5803477481018" cy="222.3" r="21" fill="#c8362f" stroke="#e6c75b" stroke-width="2"/><circle cx="583.0391248180971" cy="273.015073190559" r="21" fill="#16161c" stroke="#e6c75b" stroke-width="2"/><circle cx="583.0391248180971" cy="326.984926809441" r="21" fill="#c8362f" stroke="#e6c75b" stroke-width="2"/><circle cx="564.5803477481018" cy="377.7" r="21" fill="#16161c" stroke="#e6c75b" stroke-width="2"/><circle cx="529.8891945452882" cy="419.04330646068917" r="21" fill="#c8362f" stroke="#e6c75b" stroke-width="2"/><circle cx="483.14993027280894" cy="446.02823327013016" r="21" fill="#16161c" stroke="#e6c75b" stroke-width="2"/><circle cx="430" cy="455.4" r="21" fill="#c8362f" stroke="#e6c75b" stroke-width="2"/><circle cx="376.85006972719106" cy="446.02823327013016" r="21" fill="#16161c" stroke="#e6c75b" stroke-width="2"/><circle cx="330.1108054547118" cy="419.0433064606892" r="21" fill="#c8362f" stroke="#e6c75b" stroke-width="2"/><circle cx="295.41965225189824" cy="377.70000000000005" r="21" fill="#16161c" stroke="#e6c75b" stroke-width="2"/><circle cx="276.9608751819029" cy="326.984926809441" r="21" fill="#c8362f" stroke="#e6c75b" stroke-width="2"/><circle cx="276.96087518190285" cy="273.01507319055906" r="21" fill="#16161c" stroke="#e6c75b" stroke-width="2"/><circle cx="295.41965225189824" cy="222.29999999999998" r="21" fill="#c8362f" stroke="#e6c75b" stroke-width="2"/><circle cx="330.1108054547118" cy="180.95669353931083" r="21" fill="#16161c" stroke="#e6c75b" stroke-width="2"/><circle cx="376.850069727191" cy="153.97176672986987" r="21" fill="#c8362f" stroke="#e6c75b" stroke-width="2"/><circle cx="430" cy="300" r="88.2" fill="#e6c75b" /><circle cx="430" cy="300" r="71.4" fill="#caa83f" /><line x1="430" y1="300" x2="518.2" y2="300" stroke="#8a6f23" stroke-width="6" stroke-linecap="round"/><line x1="430" y1="300" x2="492.3668181006535" y2="362.3668181006535" stroke="#8a6f23" stroke-width="6" stroke-linecap="round"/><line x1="430" y1="300" x2="430" y2="388.2" stroke="#8a6f23" stroke-width="6" stroke-linecap="round"/><line x1="430" y1="300" x2="367.6331818993465" y2="362.3668181006535" stroke="#8a6f23" stroke-width="6" stroke-linecap="round"/><line x1="430" y1="300" x2="341.8" y2="300" stroke="#8a6f23" stroke-width="6" stroke-linecap="round"/><line x1="430" y1="300" x2="367.6331818993465" y2="237.6331818993465" stroke="#8a6f23" stroke-width="6" stroke-linecap="round"/><line x1="430" y1="300" x2="430" y2="211.8" stroke="#8a6f23" stroke-width="6" stroke-linecap="round"/><line x1="430" y1="300" x2="492.36681810065346" y2="237.63318189934648" stroke="#8a6f23" stroke-width="6" stroke-linecap="round"/><circle cx="430" cy="300" r="25.2" fill="#3a2c0d" /><circle cx="485.10559944641005" cy="154.69847588668654" r="14.700000000000001" fill="#fdfdfd" /><ellipse cx="890" cy="500" rx="230" ry="36.8" fill="#000" opacity="0.22"/><rect x="740" y="170" width="76" height="68" rx="8" fill="#16161c" stroke="#e6c75b" stroke-width="2"/><text x="778" y="214" font-family="'Segoe UI',Helvetica,Arial,sans-serif" font-size="26" font-weight="700" fill="#fff" text-anchor="middle">1</text><rect x="826" y="170" width="76" height="68" rx="8" fill="#c8362f" stroke="#e6c75b" stroke-width="2"/><text x="864" y="214" font-family="'Segoe UI',Helvetica,Arial,sans-serif" font-size="26" font-weight="700" fill="#fff" text-anchor="middle">2</text><rect x="912" y="170" width="76" height="68" rx="8" fill="#16161c" stroke="#e6c75b" stroke-width="2"/><text x="950" y="214" font-family="'Segoe UI',Helvetica,Arial,sans-serif" font-size="26" font-weight="700" fill="#fff" text-anchor="middle">3</text><rect x="998" y="170" width="76" height="68" rx="8" fill="#c8362f" stroke="#e6c75b" stroke-width="2"/><text x="1036" y="214" font-family="'Segoe UI',Helvetica,Arial,sans-serif" font-size="26" font-weight="700" fill="#fff" text-anchor="middle">4</text><rect x="740" y="248" width="76" height="68" rx="8" fill="#c8362f" stroke="#e6c75b" stroke-width="2"/><text x="778" y="292" font-family="'Segoe UI',Helvetica,Arial,sans-serif" font-size="26" font-weight="700" fill="#fff" text-anchor="middle">5</text><rect x="826" y="248" width="76" height="68" rx="8" fill="#16161c" stroke="#e6c75b" stroke-width="2"/><text x="864" y="292" font-family="'Segoe UI',Helvetica,Arial,sans-serif" font-size="26" font-weight="700" fill="#fff" text-anchor="middle">6</text><rect x="912" y="248" width="76" height="68" rx="8" fill="#c8362f" stroke="#e6c75b" stroke-width="2"/><text x="950" y="292" font-family="'Segoe UI',Helvetica,Arial,sans-serif" font-size="26" font-weight="700" fill="#fff" text-anchor="middle">7</text><rect x="998" y="248" width="76" height="68" rx="8" fill="#16161c" stroke="#e6c75b" stroke-width="2"/><text x="1036" y="292" font-family="'Segoe UI',Helvetica,Arial,sans-serif" font-size="26" font-weight="700" fill="#fff" text-anchor="middle">8</text><rect x="740" y="326" width="76" height="68" rx="8" fill="#16161c" stroke="#e6c75b" stroke-width="2"/><text x="778" y="370" font-family="'Segoe UI',Helvetica,Arial,sans-serif" font-size="26" font-weight="700" fill="#fff" text-anchor="middle">9</text><rect x="826" y="326" width="76" height="68" rx="8" fill="#c8362f" stroke="#e6c75b" stroke-width="2"/><text x="864" y="370" font-family="'Segoe UI',Helvetica,Arial,sans-serif" font-size="26" font-weight="700" fill="#fff" text-anchor="middle">10</text><rect x="912" y="326" width="76" height="68" rx="8" fill="#16161c" stroke="#e6c75b" stroke-width="2"/><text x="950" y="370" font-family="'Segoe UI',Helvetica,Arial,sans-serif" font-size="26" font-weight="700" fill="#fff" text-anchor="middle">11</text><rect x="998" y="326" width="76" height="68" rx="8" fill="#c8362f" stroke="#e6c75b" stroke-width="2"/><text x="1036" y="370" font-family="'Segoe UI',Helvetica,Arial,sans-serif" font-size="26" font-weight="700" fill="#fff" text-anchor="middle">12</text><rect x="740" y="404" width="76" height="68" rx="8" fill="#c8362f" stroke="#e6c75b" stroke-width="2"/><text x="778" y="448" font-family="'Segoe UI',Helvetica,Arial,sans-serif" font-size="26" font-weight="700" fill="#fff" text-anchor="middle">13</text><rect x="826" y="404" width="76" height="68" rx="8" fill="#16161c" stroke="#e6c75b" stroke-width="2"/><text x="864" y="448" font-family="'Segoe UI',Helvetica,Arial,sans-serif" font-size="26" font-weight="700" fill="#fff" text-anchor="middle">14</text><rect x="912" y="404" width="76" height="68" rx="8" fill="#c8362f" stroke="#e6c75b" stroke-width="2"/><text x="950" y="448" font-family="'Segoe UI',Helvetica,Arial,sans-serif" font-size="26" font-weight="700" fill="#fff" text-anchor="middle">15</text><rect x="998" y="404" width="76" height="68" rx="8" fill="#16161c" stroke="#e6c75b" stroke-width="2"/><text x="1036" y="448" font-family="'Segoe UI',Helvetica,Arial,sans-serif" font-size="26" font-weight="700" fill="#fff" text-anchor="middle">16</text>
</svg>