<svg xmlns="http://www.w3.org/2000/svg" viewBox="0 0 1200 600" width="1200" height="600" font-family="'Segoe UI',Helvetica,Arial,sans-serif">
<defs><radialGradient id="spg" cx="0.5" cy="0.42" r="0.75"><stop offset="0" stop-color="#1b1b1b"/><stop offset="1" stop-color="#070707"/></radialGradient></defs>
<rect width="1200" height="600" fill="url(#spg)"/>
<ellipse cx="600" cy="220" rx="640" ry="380" fill="#ffffff" opacity="0.06"/>
<rect x="820" y="350" width="26" height="120" rx="13" fill="#1db954" opacity="0.55"/><rect x="860" y="270" width="26" height="200" rx="13" fill="#1db954" opacity="0.6000000000000001"/><rect x="900" y="380" width="26" height="90" rx="13" fill="#1db954" opacity="0.65"/><rect x="940" y="210" width="26" height="260" rx="13" fill="#1db954" opacity="0.7000000000000001"/><rect x="980" y="310" width="26" height="160" rx="13" fill="#1db954" opacity="0.75"/><rect x="1020" y="170" width="26" height="300" rx="13" fill="#1db954" opacity="0.8"/><rect x="1060" y="330" width="26" height="140" rx="13" fill="#1db954" opacity="0.8500000000000001"/><rect x="1100" y="250" width="26" height="220" rx="13" fill="#1db954" opacity="0.9000000000000001"/><rect x="1140" y="370" width="26" height="100" rx="13" fill="#1db954" opacity="0.9500000000000001"/><ellipse cx="400" cy="530" rx="210" ry="33.6" fill="#000" opacity="0.22"/><circle cx="400" cy="300" r="200" fill="#0d0d0d" stroke="#222" stroke-width="2"/><circle cx="400" cy="300" r="168" fill="none" stroke="#1db954" stroke-width="3" opacity="0.5"/><circle cx="400" cy="300" r="130" fill="none" stroke="#1db954" stroke-width="3" opacity="0.4"/><circle cx="400" cy="300" r="92" fill="none" stroke="#1db954" stroke-width="3" opacity="0.3"/><circle cx="400" cy="300" r="60" fill="#1db954" /><circle cx="400" cy="300" r="14" fill="#0d0d0d" /><g fill="#1db954"><rect x="470" y="150" width="14" height="150" rx="7"/><ellipse cx="458" cy="300" rx="34" ry="26"/><rect x="470" y="150" width="120" height="14" rx="7"/><rect x="576" y="150" width="14" height="120" rx="7"/><ellipse cx="564" cy="270" rx="34" ry="26"/></g>
</svg>