<svg xmlns="http://www.w3.org/2000/svg" viewBox="0 0 1200 600" width="1200" height="600" font-family="'Segoe UI',Helvetica,Arial,sans-serif">
<defs><radialGradient id="scg" cx="0.5" cy="0.42" r="0.75"><stop offset="0" stop-color="#7c3aed"/><stop offset="1" stop-color="#4c1d95"/></radialGradient></defs>
<rect width="1200" height="600" fill="url(#scg)"/>
<ellipse cx="600" cy="220" rx="640" ry="380" fill="#ffffff" opacity="0.06"/>
<ellipse cx="470" cy="500" rx="230" ry="36.8" fill="#000" opacity="0.22"/><path d="M150 360 Q330 300 470 360 V190 Q330 130 150 190 Z" fill="#f8fafc"/><path d="M790 360 Q610 300 470 360 V190 Q610 130 790 190 Z" fill="#e2e8f0"/><line x1="470" y1="190" x2="470" y2="360" stroke="#a78bfa" stroke-width="5"/><rect x="200" y="210" width="210" height="10" rx="5" fill="#c4b5fd" /><rect x="520" y="210" width="210" height="10" rx="5" fill="#cbd5e1" /><rect x="200" y="244" width="210" height="10" rx="5" fill="#c4b5fd" /><rect x="520" y="244" width="210" height="10" rx="5" fill="#cbd5e1" /><rect x="200" y="278" width="210" height="10" rx="5" fill="#c4b5fd" /><rect x="520" y="278" width="210" height="10" rx="5" fill="#cbd5e1" /><rect x="200" y="312" width="210" height="10" rx="5" fill="#c4b5fd" /><rect x="520" y="312" width="210" height="10" rx="5" fill="#cbd5e1" /><ellipse cx="960" cy="360" rx="130" ry="20.8" fill="#000" opacity="0.22"/><rect x="800" y="150" width="320" height="180" rx="28" fill="#ffffff" /><path d="M870 330 l0 60 l58 -60 Z" fill="#ffffff"/><circle cx="870" cy="240" r="16" fill="#7c3aed" /><circle cx="960" cy="240" r="16" fill="#a78bfa" /><circle cx="1050" cy="240" r="16" fill="#c4b5fd" /><g fill="#fde68a"><path d="M740 120 l10 26 26 10 -26 10 -10 26 -10 -26 -26 -10 26 -10 Z"/><path d="M150 470 l7 18 18 7 -18 7 -7 18 -7 -18 -18 -7 18 -7 Z"/></g>
</svg>