<svg xmlns="http://www.w3.org/2000/svg" viewBox="0 0 1200 600" width="1200" height="600" font-family="'Segoe UI',Helvetica,Arial,sans-serif">
<defs><radialGradient id="tg" cx="0.5" cy="0.42" r="0.75"><stop offset="0" stop-color="#15897e"/><stop offset="1" stop-color="#0b4f49"/></radialGradient></defs>
<rect width="1200" height="600" fill="url(#tg)"/>
<ellipse cx="600" cy="220" rx="640" ry="380" fill="#ffffff" opacity="0.06"/>
<ellipse cx="520" cy="500" rx="220" ry="35.2" fill="#000" opacity="0.22"/><g transform="rotate(-7 500 300)"><rect x="330" y="120" width="360" height="380" rx="18" fill="#f8fafc" /><rect x="330" y="120" width="360" height="66" rx="18" fill="#0f766e" /><text x="360" y="163" font-family="'Segoe UI',Helvetica,Arial,sans-serif" font-size="34" font-weight="800" fill="#fff">1040</text><rect x="360" y="230" width="200" height="14" rx="7" fill="#cbd5e1" /><rect x="580" y="230" width="80" height="14" rx="7" fill="#0f766e" /><rect x="360" y="272" width="200" height="14" rx="7" fill="#cbd5e1" /><rect x="580" y="272" width="80" height="14" rx="7" fill="#94a3b8" /><rect x="360" y="314" width="200" height="14" rx="7" fill="#cbd5e1" /><rect x="580" y="314" width="80" height="14" rx="7" fill="#0f766e" /><rect x="360" y="356" width="200" height="14" rx="7" fill="#cbd5e1" /><rect x="580" y="356" width="80" height="14" rx="7" fill="#94a3b8" /><rect x="360" y="398" width="200" height="14" rx="7" fill="#cbd5e1" /><rect x="580" y="398" width="80" height="14" rx="7" fill="#0f766e" /><rect x="360" y="440" width="200" height="14" rx="7" fill="#cbd5e1" /><rect x="580" y="440" width="80" height="14" rx="7" fill="#94a3b8" /></g><ellipse cx="880" cy="510" rx="130" ry="20.8" fill="#000" opacity="0.22"/><rect x="760" y="250" width="240" height="250" rx="20" fill="#1f2937" /><rect x="782" y="272" width="196" height="56" rx="8" fill="#34d399" /><rect x="786" y="346" width="52" height="38" rx="8" fill="#374151" /><rect x="852" y="346" width="52" height="38" rx="8" fill="#374151" /><rect x="918" y="346" width="52" height="38" rx="8" fill="#374151" /><rect x="786" y="394" width="52" height="38" rx="8" fill="#374151" /><rect x="852" y="394" width="52" height="38" rx="8" fill="#374151" /><rect x="918" y="394" width="52" height="38" rx="8" fill="#374151" /><rect x="786" y="442" width="52" height="38" rx="8" fill="#374151" /><rect x="852" y="442" width="52" height="38" rx="8" fill="#374151" /><rect x="918" y="442" width="52" height="38" rx="8" fill="#374151" /><circle cx="330" cy="200" r="64" fill="#f59e0b" stroke="#fff" stroke-width="6"/><text x="330" y="226" font-family="'Segoe UI',Helvetica,Arial,sans-serif" font-size="74" font-weight="800" fill="#fff" text-anchor="middle">$</text>
</svg>