<svg xmlns="http://www.w3.org/2000/svg" viewBox="0 0 1200 600" width="1200" height="600" font-family="'Segoe UI',Helvetica,Arial,sans-serif">
<defs><radialGradient id="tng" cx="0.5" cy="0.42" r="0.75"><stop offset="0" stop-color="#1f9e57"/><stop offset="1" stop-color="#0c5a33"/></radialGradient></defs>
<rect width="1200" height="600" fill="url(#tng)"/>
<ellipse cx="600" cy="220" rx="640" ry="380" fill="#ffffff" opacity="0.06"/>
<path d="M160 470 L320 430 L470 380 L620 300 L770 240 L920 150" fill="none" stroke="#f9f871" stroke-width="6" stroke-linecap="round" opacity="0.8"/><circle cx="160" cy="470" r="9" fill="#f9f871" /><circle cx="320" cy="430" r="9" fill="#f9f871" /><circle cx="470" cy="380" r="9" fill="#f9f871" /><circle cx="620" cy="300" r="9" fill="#f9f871" /><circle cx="770" cy="240" r="9" fill="#f9f871" /><circle cx="920" cy="150" r="9" fill="#f9f871" /><ellipse cx="430" cy="520" rx="150" ry="24.0" fill="#000" opacity="0.22"/><g transform="rotate(28 430 360)"><ellipse cx="430" cy="250" rx="120" ry="150" fill="none" stroke="#f1f5f9" stroke-width="22"/><line x1="340" y1="110" x2="340" y2="390" stroke="#e2e8f0" stroke-width="3" opacity="0.7"/><line x1="320" y1="160" x2="540" y2="160" stroke="#e2e8f0" stroke-width="3" opacity="0.7"/><line x1="370" y1="110" x2="370" y2="390" stroke="#e2e8f0" stroke-width="3" opacity="0.7"/><line x1="320" y1="190" x2="540" y2="190" stroke="#e2e8f0" stroke-width="3" opacity="0.7"/><line x1="400" y1="110" x2="400" y2="390" stroke="#e2e8f0" stroke-width="3" opacity="0.7"/><line x1="320" y1="220" x2="540" y2="220" stroke="#e2e8f0" stroke-width="3" opacity="0.7"/><line x1="430" y1="110" x2="430" y2="390" stroke="#e2e8f0" stroke-width="3" opacity="0.7"/><line x1="320" y1="250" x2="540" y2="250" stroke="#e2e8f0" stroke-width="3" opacity="0.7"/><line x1="460" y1="110" x2="460" y2="390" stroke="#e2e8f0" stroke-width="3" opacity="0.7"/><line x1="320" y1="280" x2="540" y2="280" stroke="#e2e8f0" stroke-width="3" opacity="0.7"/><line x1="490" y1="110" x2="490" y2="390" stroke="#e2e8f0" stroke-width="3" opacity="0.7"/><line x1="320" y1="310" x2="540" y2="310" stroke="#e2e8f0" stroke-width="3" opacity="0.7"/><line x1="520" y1="110" x2="520" y2="390" stroke="#e2e8f0" stroke-width="3" opacity="0.7"/><line x1="320" y1="340" x2="540" y2="340" stroke="#e2e8f0" stroke-width="3" opacity="0.7"/><rect x="414" y="388" width="32" height="150" rx="14" fill="#cbd5e1" /></g><ellipse cx="880" cy="500" rx="90" ry="14.4" fill="#000" opacity="0.22"/><circle cx="880" cy="420" r="76" fill="#d7f205" stroke="#a7c400" stroke-width="3"/><path d="M812 392 Q880 430 948 392" fill="none" stroke="#fff" stroke-width="6"/><path d="M812 448 Q880 410 948 448" fill="none" stroke="#fff" stroke-width="6"/>
</svg>