<svg xmlns="http://www.w3.org/2000/svg" viewBox="0 0 1200 600" width="1200" height="600" font-family="'Segoe UI',Helvetica,Arial,sans-serif">
<defs><radialGradient id="ug" cx="0.5" cy="0.42" r="0.75"><stop offset="0" stop-color="#274a9e"/><stop offset="1" stop-color="#152a63"/></radialGradient></defs>
<rect width="1200" height="600" fill="url(#ug)"/>
<ellipse cx="600" cy="220" rx="640" ry="380" fill="#ffffff" opacity="0.06"/>
<rect x="760" y="120" width="420" height="20" rx="0" fill="#ffffff" opacity="0.22"/><rect x="760" y="160" width="420" height="20" rx="0" fill="#e23b4e" opacity="0.22"/><rect x="760" y="200" width="420" height="20" rx="0" fill="#ffffff" opacity="0.22"/><rect x="760" y="240" width="420" height="20" rx="0" fill="#e23b4e" opacity="0.22"/><rect x="760" y="280" width="420" height="20" rx="0" fill="#ffffff" opacity="0.22"/><rect x="760" y="320" width="420" height="20" rx="0" fill="#e23b4e" opacity="0.22"/><ellipse cx="470" cy="510" rx="210" ry="33.6" fill="#000" opacity="0.22"/><g transform="rotate(-5 470 300)"><rect x="280" y="110" width="380" height="400" rx="16" fill="#f8fafc" /><rect x="280" y="110" width="380" height="70" rx="16" fill="#1e3a8a" /><text x="312" y="156" font-family="'Segoe UI',Helvetica,Arial,sans-serif" font-size="32" font-weight="800" fill="#fff">N-400</text><circle cx="322" cy="228" r="18" fill="#dbeafe" stroke="#1e3a8a" stroke-width="3"/><path d="M313 228 l7 8 12 -16" fill="none" stroke="#16a34a" stroke-width="5" stroke-linecap="round" stroke-linejoin="round"/><rect x="360" y="218" width="240" height="14" rx="7" fill="#cbd5e1" /><circle cx="322" cy="288" r="18" fill="#dbeafe" stroke="#1e3a8a" stroke-width="3"/><path d="M313 288 l7 8 12 -16" fill="none" stroke="#16a34a" stroke-width="5" stroke-linecap="round" stroke-linejoin="round"/><rect x="360" y="278" width="240" height="14" rx="7" fill="#cbd5e1" /><circle cx="322" cy="348" r="18" fill="#dbeafe" stroke="#1e3a8a" stroke-width="3"/><path d="M313 348 l7 8 12 -16" fill="none" stroke="#16a34a" stroke-width="5" stroke-linecap="round" stroke-linejoin="round"/><rect x="360" y="338" width="240" height="14" rx="7" fill="#cbd5e1" /><circle cx="322" cy="408" r="18" fill="#dbeafe" stroke="#1e3a8a" stroke-width="3"/><path d="M313 408 l7 8 12 -16" fill="none" stroke="#16a34a" stroke-width="5" stroke-linecap="round" stroke-linejoin="round"/><rect x="360" y="398" width="240" height="14" rx="7" fill="#cbd5e1" /><circle cx="322" cy="468" r="18" fill="#dbeafe" stroke="#1e3a8a" stroke-width="3"/><path d="M313 468 l7 8 12 -16" fill="none" stroke="#16a34a" stroke-width="5" stroke-linecap="round" stroke-linejoin="round"/><rect x="360" y="458" width="240" height="14" rx="7" fill="#cbd5e1" /></g><g transform="translate(960 300)"><ellipse cx="0" cy="150" rx="90" ry="14.4" fill="#000" opacity="0.22"/><path d="M0 -90 L26 -28 L92 -28 L40 12 L60 78 L0 38 L-60 78 L-40 12 L-92 -28 L-26 -28 Z" fill="#fcd34d" stroke="#fff" stroke-width="4"/></g>
</svg>